<svg xmlns="http://www.w3.org/2000/svg" fill="none" viewBox="0 0 40 40">
  <path d="M0 20c0 10.996 8.93 20 20 20s20-9.004 20-20S31.07 0 20 0C9.004 0 0 8.93 0 20z" fill="#fff"/>
  <path d="M25.854 13.068c-.71 0-1.291.582-1.291 1.292 0 .71.58 1.291 1.291 1.291.71 0 1.292-.58 1.292-1.291 0-.71-.581-1.292-1.292-1.292zm-5.747 1.68c-2.97 0-5.424 2.453-5.424 5.424 0 2.97 2.454 5.424 5.424 5.424s5.424-2.454 5.424-5.424-2.453-5.425-5.424-5.425zm0 8.91a3.473 3.473 0 01-3.487-3.486 3.473 3.473 0 013.487-3.488 3.473 3.473 0 013.487 3.488c0 1.937-1.614 3.487-3.487 3.487zm10.978-8.007c0-3.68-2.97-6.651-6.651-6.651H15.65A6.642 6.642 0 009 15.651v8.783a6.64 6.64 0 006.651 6.65h8.783a6.64 6.64 0 006.65-6.65V15.65zm-2.131 8.783c0 2.518-2.067 4.584-4.585 4.584h-8.782c-2.519 0-4.585-2.066-4.585-4.584V15.65c0-2.518 2.066-4.585 4.585-4.585h8.782c2.518 0 4.585 2.067 4.585 4.585v8.783z" fill="#373873"/>
</svg>
