<svg xmlns="http://www.w3.org/2000/svg" fill="none" viewBox="0 0 40 40">
  <path d="M32.497 20.02s0 4.057-.515 6.012a3.133 3.133 0 01-2.203 2.203c-1.956.515-9.78.515-9.78.515s-7.802 0-9.779-.535a3.133 3.133 0 01-2.203-2.203C7.503 24.077 7.503 20 7.503 20s0-4.056.515-6.012a3.197 3.197 0 012.203-2.223C12.177 11.25 20 11.25 20 11.25s7.823 0 9.78.535a3.133 3.133 0 012.203 2.203c.535 1.957.514 6.032.514 6.032z" fill="#373873"/>
  <path d="M17.509 23.747L24.015 20l-6.506-3.747v7.494z" fill="#fff"/>
  <path d="M20 0C8.956 0 0 8.956 0 20s8.956 20 20 20 20-8.956 20-20S31.044 0 20 0zm12.497 20.02s0 4.057-.515 6.012a3.133 3.133 0 01-2.203 2.203c-1.956.515-9.779.515-9.779.515s-7.803 0-9.78-.535a3.133 3.133 0 01-2.203-2.203C7.503 24.077 7.503 20 7.503 20s0-4.056.515-6.012a3.197 3.197 0 012.203-2.223C12.177 11.25 20 11.25 20 11.25s7.823 0 9.78.535a3.133 3.133 0 012.203 2.203c.535 1.957.514 6.032.514 6.032z" fill="#fff"/>
</svg>
